<?xml version="1.0" standalone="no"?>
<!DOCTYPE svg PUBLIC "-//W3C//DTD SVG 20010904//EN"
 "http://www.w3.org/TR/2001/REC-SVG-20010904/DTD/svg10.dtd">
<svg version="1.0" xmlns="http://www.w3.org/2000/svg"
 width="384.000000pt" height="384.000000pt" viewBox="0 0 384.000000 384.000000"
 preserveAspectRatio="xMidYMid meet">

<g transform="translate(0.000000,384.000000) scale(0.100000,-0.100000)"
fill="#000000" stroke="none">
<path d="M1723 3824 c-277 -46 -471 -198 -555 -434 -30 -85 -30 -252 1 -424
l21 -118 -25 -29 c-40 -49 -50 -97 -37 -189 14 -95 42 -156 84 -178 65 -35 78
-54 99 -137 25 -103 65 -187 119 -250 81 -96 96 -171 66 -316 -28 -132 -90
-217 -219 -303 -97 -64 -180 -103 -417 -196 -96 -37 -210 -84 -254 -104 -210
-96 -391 -237 -415 -321 -7 -26 -11 -176 -11 -432 l0 -393 1740 0 1740 0 0
393 c0 256 -4 406 -11 432 -24 84 -205 225 -415 321 -44 20 -158 67 -254 104
-237 93 -320 132 -417 196 -129 86 -191 171 -219 303 -30 145 -15 220 66 316
54 63 94 147 119 250 21 83 34 102 99 137 42 22 70 83 84 178 13 92 3 140 -37
189 l-25 29 21 118 c31 172 31 339 1 424 -67 187 -210 329 -401 395 -149 52
-374 68 -548 39z"/>
</g>
</svg>
