<?xml version="1.0" standalone="no"?>
<!DOCTYPE svg PUBLIC "-//W3C//DTD SVG 20010904//EN"
 "http://www.w3.org/TR/2001/REC-SVG-20010904/DTD/svg10.dtd">
<svg version="1.0" xmlns="http://www.w3.org/2000/svg"
 width="512.000000pt" height="512.000000pt" viewBox="0 0 512.000000 512.000000"
 preserveAspectRatio="xMidYMid meet">

<g transform="translate(0.000000,512.000000) scale(0.100000,-0.100000)"
fill="#000000" stroke="none">
<path d="M2365 5109 c-176 -20 -370 -87 -492 -170 -198 -135 -331 -363 -350
-599 -6 -77 11 -238 46 -444 l18 -105 -25 -23 c-59 -55 -76 -140 -57 -273 22
-144 50 -193 138 -243 29 -16 58 -36 65 -44 7 -8 24 -62 38 -119 34 -140 86
-246 172 -351 39 -49 76 -105 81 -125 16 -56 13 -204 -5 -286 -48 -218 -192
-369 -484 -509 -58 -28 -215 -93 -350 -145 -416 -161 -647 -285 -798 -428 -39
-37 -81 -87 -94 -113 l-23 -47 -3 -543 -3 -542 2321 0 2321 0 -3 542 -3 543
-23 47 c-13 26 -55 76 -94 113 -151 143 -382 267 -798 428 -135 52 -292 117
-350 145 -292 140 -436 291 -484 509 -18 82 -21 230 -5 286 5 20 42 76 81 125
86 105 138 211 172 351 14 57 31 111 38 119 7 8 36 28 65 44 88 50 116 99 138
243 19 133 2 218 -57 273 l-25 23 18 105 c35 206 52 367 46 444 -19 236 -152
464 -350 599 -209 143 -543 207 -882 170z"/>
</g>
</svg>
